<?xml version="1.0" encoding="utf-8"?><!-- Uploaded to: SVG Repo, www.svgrepo.com, Generator: SVG Repo Mixer Tools -->
<svg fill="#000000" width="800px" height="800px" viewBox="0 0 24 24" id="file-zip-2" data-name="Flat Color" xmlns="http://www.w3.org/2000/svg" class="icon flat-color"><path id="primary" d="M4.29,4.29l2-2A1,1,0,0,1,7,2H18a2,2,0,0,1,2,2V20a2,2,0,0,1-2,2H6a2,2,0,0,1-2-2V5A1,1,0,0,1,4.29,4.29Z" style="fill: rgb(0, 0, 0);"></path><path id="secondary" d="M13,5a1,1,0,0,1,1-1V2h2V4a1,1,0,0,1,0,2V8a1,1,0,0,1,0,2v1a1,1,0,0,1-2,0V10a1,1,0,0,1,0-2V6A1,1,0,0,1,13,5ZM4,5H6A1,1,0,0,0,7,4V2a1,1,0,0,0-.71.29l-2,2A1,1,0,0,0,4,5Z" style="fill: rgb(44, 169, 188);"></path></svg>